<svg xmlns="http://www.w3.org/2000/svg" id="US_UK_Download_on_the" viewBox="0 0 135 40">
  <style>
    .s0{fill:#A6A6A6;}
    .s1{fill:#fff;}
  </style>
  <path d="M130.2 40H4.7C2.1 40 0 37.9 0 35.3V4.7C0 2.1 2.1 0 4.7 0h125.5c2.6 0 4.8 2.1 4.8 4.7v30.5c0 2.7-2.2 4.8-4.8 4.8z" class="s0"/>
  <path d="M134 35.3c0 2.1-1.7 3.8-3.8 3.8H4.7c-2.1 0-3.8-1.7-3.8-3.8V4.7C.9 2.6 2.6.9 4.7.9h125.5c2.1 0 3.8 1.7 3.8 3.8v30.6z"/>
  <path d="M30.1 19.8c0-3.2 2.6-4.8 2.8-4.9-1.5-2.2-3.9-2.5-4.7-2.5-2-.2-3.9 1.2-4.9 1.2-1 0-2.6-1.2-4.2-1.1-2.1 0-4.1 1.3-5.2 3.2-2.3 3.9-.6 9.7 1.6 12.9 1.1 1.6 2.4 3.3 4 3.2 1.6-.1 2.2-1 4.2-1 1.9 0 2.5 1 4.2 1 1.7 0 2.8-1.6 3.9-3.1 1.3-1.8 1.8-3.5 1.8-3.6-.1-.2-3.4-1.5-3.5-5.3zm-3.2-9.5c.9-1.1 1.5-2.6 1.3-4.1-1.3.1-2.8.9-3.8 1.9-.8.9-1.5 2.5-1.3 3.9 1.5.2 2.9-.6 3.8-1.7z" class="s1"/>
  <text transform="translate(400 10)" font-family="MyriadPro-Regular" font-size="12">
    class=&quot;app-download&quot;
  </text>
  <text transform="translate(400 10)" font-family="MyriadPro-Regular" font-size="12">
    class=&quot;app-download&quot;
  </text>
  <path d="M48 23.5c-.5.2-1.5.5-2.8.5-3.4 0-5.5-2.2-5.5-5.4 0-3.6 2.5-5.7 5.8-5.7 1.3 0 2.2.3 2.6.5l-.4 1.6c-.5-.2-1.2-.4-2.1-.4-2.2 0-3.8 1.4-3.8 4 0 2.4 1.4 3.9 3.8 3.9.8 0 1.6-.2 2.1-.4l.3 1.4zm8.3-3.6c0 2.9-2 4.1-4 4.1-2.2 0-3.9-1.5-3.9-4 0-2.6 1.7-4.1 4-4.1 2.4 0 3.9 1.6 3.9 4zm-5.8.1c0 1.5.7 2.6 1.9 2.6 1.1 0 1.9-1.1 1.9-2.7 0-1.2-.5-2.6-1.9-2.6s-1.9 1.4-1.9 2.7zm7.1-1.6c0-.9 0-1.6-.1-2.3h1.7l.1 1.2c.4-.6 1.1-1.3 2.4-1.3 1 0 1.8.6 2.2 1.4.3-.4.6-.8 1-1 .4-.3.9-.5 1.6-.5 1.3 0 2.6.9 2.6 3.4v4.6h-1.9v-4.3c0-1.3-.4-2.1-1.4-2.1-.7 0-1.2.5-1.4 1 0 .2-.1.4-.1.7v4.7h-1.9v-4.5c0-1.1-.4-1.9-1.3-1.9-.7 0-1.2.6-1.4 1.1-.1.2-.1.4-.1.6v4.6h-1.9v-5.4zm15.3-4.5c0 .6-.4 1.1-1.1 1.1-.7 0-1.1-.5-1.1-1.1 0-.6.4-1.1 1.1-1.1.7 0 1.1.5 1.1 1.1zm-2.1 9.9V16h2v7.8h-2zm3.7-5.4c0-.9 0-1.6-.1-2.3h1.7l.1 1.2c.3-.6 1.2-1.3 2.5-1.3 1.4 0 2.8.9 2.8 3.3v4.6h-2v-4.4c0-1.1-.4-2-1.5-2-.8 0-1.3.6-1.5 1.2-.1.2-.1.4-.1.6v4.6h-2v-5.5zm15.9 4.3c0 1.6-.3 2.8-1.2 3.5-.8.7-1.9.9-3 .9-1 0-2-.2-2.7-.6l.4-1.5c.5.3 1.3.6 2.3.6 1.3 0 2.2-.7 2.2-2.4v-.7c-.4.7-1.2 1.2-2.3 1.2-1.9 0-3.3-1.6-3.3-3.8 0-2.6 1.7-4.1 3.5-4.1 1.2 0 1.9.6 2.3 1.2l.1-1h1.7c0 .5-.1 1.2-.1 2.2v4.5zm-2-3.5c0-.2 0-.4-.1-.5-.2-.7-.8-1.3-1.6-1.3-1.1 0-1.9 1-1.9 2.5 0 1.3.7 2.4 1.9 2.4.7 0 1.4-.5 1.6-1.2 0-.2.1-.5.1-.7v-1.2zm6.7 2.5c.6.4 1.6.7 2.6.7 1.3 0 2-.6 2-1.5 0-.8-.5-1.3-1.9-1.8-1.8-.6-2.9-1.6-2.9-3.1 0-1.8 1.5-3.1 3.8-3.1 1.2 0 2 .3 2.6.5l-.5 1.6c-.4-.2-1.1-.5-2.1-.5-1.2 0-1.8.7-1.8 1.3 0 .8.6 1.2 2.1 1.8 1.9.7 2.8 1.6 2.8 3.2 0 1.7-1.3 3.3-4.1 3.3-1.1 0-2.3-.3-2.9-.7l.3-1.7zm15.4-1.8c0 2.9-2 4.1-4 4.1-2.2 0-3.9-1.5-3.9-4 0-2.6 1.7-4.1 4-4.1s3.9 1.6 3.9 4zm-5.9.1c0 1.5.7 2.6 1.9 2.6 1.1 0 1.9-1.1 1.9-2.7 0-1.2-.5-2.6-1.9-2.6-1.3 0-1.9 1.4-1.9 2.7zm14.5-.1c0 2.9-2 4.1-4 4.1-2.2 0-3.9-1.5-3.9-4 0-2.6 1.7-4.1 4-4.1 2.4 0 3.9 1.6 3.9 4zm-5.8.1c0 1.5.7 2.6 1.9 2.6 1.1 0 1.9-1.1 1.9-2.7 0-1.2-.5-2.6-1.9-2.6s-1.9 1.4-1.9 2.7zm7.1-1.6c0-.9 0-1.6-.1-2.3h1.7l.1 1.2c.3-.6 1.2-1.3 2.5-1.3 1.4 0 2.8.9 2.8 3.3v4.6h-2v-4.4c0-1.1-.4-2-1.5-2-.8 0-1.3.6-1.5 1.2-.1.2-.1.4-.1.6v4.6h-2v-5.5z" class="s1"/>
</svg>