<svg xmlns="http://www.w3.org/2000/svg" id="artwork" viewBox="0 0 135 40">
  <style>
    .s0{fill:#A6A6A6;}
    .s1{fill:#fff;stroke:#fff;stroke-width:0.2}
    .s2{fill:#fff;}
    .s3{fill:url(#g1);}
    .s4{fill:url(#g2);}
    .s5{fill:url(#g3);}
    .s6{fill:url(#g4);}
    .s7{opacity:0.2;}
    .s8{opacity:0.12;}
    .s9{opacity:0.25;fill:#fff;}
  </style>
  <path d="M130 40H5c-2.75 0-5-2.25-5-5V5c0-2.75 2.25-5 5-5h125c2.75 0 5 2.25 5 5v30c0 2.75-2.25 5-5 5z"/>
  <path d="M130 .8c2.316 0 4.2 1.884 4.2 4.2v30c0 2.316-1.884 4.2-4.2 4.2H5C2.684 39.2.8 37.316.8 35V5C.8 2.684 2.684.8 5 .8h125m0-.8H5C2.25 0 0 2.25 0 5v30c0 2.75 2.25 5 5 5h125c2.75 0 5-2.25 5-5V5c0-2.75-2.25-5-5-5z" class="s0"/>
  <path d="M47.418 10.243c0 .838-.248 1.506-.745 2.003-.564.592-1.3.888-2.204.888-.87 0-1.61-.3-2.21-.9-.61-.6-.91-1.346-.91-2.234 0-.89.3-1.633.91-2.233.6-.6 1.34-.9 2.2-.9.43 0 .84.083 1.23.25.39.168.7.39.94.67l-.53.53c-.4-.476-.95-.713-1.65-.713-.636 0-1.18.22-1.64.666-.46.444-.69 1.02-.69 1.73s.23 1.286.69 1.73c.46.445 1.004.667 1.64.667.67 0 1.23-.224 1.672-.67.29-.29.46-.696.503-1.216h-2.18v-.72h2.91c.03.16.04.31.04.46zm4.61-2.506h-2.733V9.64h2.464v.72h-2.47v1.903h2.73V13h-3.5V7h3.5v.737zM55.28 13h-.773V7.737H52.83V7h4.124v.737H55.28V13zm4.658 0V7h.77v6h-.77zm4.19 0h-.77V7.737H61.68V7h4.124v.737h-1.676V13zm9.482-.775c-.59.606-1.324.91-2.2.91-.878 0-1.61-.304-2.2-.91-.59-.606-.884-1.348-.884-2.225s.294-1.62.884-2.225c.59-.606 1.322-.91 2.2-.91.87 0 1.603.305 2.195.914.592.6.888 1.34.888 2.22 0 .87-.295 1.62-.884 2.22zm-3.83-.503c.444.45.987.675 1.63.675.642 0 1.186-.225 1.63-.675.443-.45.666-1.024.666-1.722s-.223-1.272-.667-1.722c-.45-.45-.99-.674-1.63-.674-.65 0-1.19.224-1.63.674-.45.45-.67 1.024-.67 1.722s.22 1.273.66 1.722zM75.575 13V7h.94l2.915 4.668h.033l-.033-1.157V7h.77v6h-.804l-3.05-4.894h-.034l.034 1.157V13h-.77z" class="s1"/>
  <path d="M68.136 21.752c-2.352 0-4.27 1.788-4.27 4.253 0 2.45 1.918 4.253 4.27 4.253 2.352 0 4.27-1.804 4.27-4.253 0-2.465-1.918-4.253-4.27-4.253zm0 6.83c-1.29 0-2.4-1.063-2.4-2.577 0-1.53 1.11-2.578 2.4-2.578 1.29 0 2.4 1.047 2.4 2.578 0 1.514-1.11 2.578-2.4 2.578zm-9.314-6.83c-2.352 0-4.27 1.788-4.27 4.253 0 2.45 1.918 4.253 4.27 4.253 2.352 0 4.27-1.804 4.27-4.253 0-2.465-1.917-4.253-4.27-4.253zm0 6.83c-1.29 0-2.4-1.063-2.4-2.577 0-1.53 1.112-2.578 2.4-2.578 1.29 0 2.4 1.047 2.4 2.578 0 1.514-1.11 2.578-2.4 2.578zm-11.078-5.525v1.804h4.317c-.12 1.02-.46 1.76-.98 2.28-.63.63-1.61 1.32-3.33 1.32-2.66 0-4.73-2.14-4.73-4.8s2.08-4.8 4.74-4.8c1.438 0 2.48.57 3.258 1.29l1.273-1.27c-1.08-1.03-2.512-1.82-4.526-1.82-3.64 0-6.7 2.97-6.7 6.61s3.06 6.61 6.7 6.61c1.966 0 3.448-.643 4.608-1.852 1.197-1.19 1.568-2.865 1.568-4.22 0-.42-.03-.804-.094-1.126h-6.08zm45.308 1.4c-.355-.95-1.434-2.705-3.64-2.705-2.192 0-4.013 1.724-4.013 4.253 0 2.384 1.8 4.253 4.22 4.253 1.95 0 3.07-1.192 3.54-1.885l-1.45-.967c-.49.71-1.15 1.177-2.1 1.177-.95 0-1.63-.435-2.07-1.29l5.684-2.35-.193-.485zm-5.8 1.42c-.048-1.644 1.273-2.482 2.223-2.482.742 0 1.37.37 1.58.902l-3.803 1.58zM82.628 30h1.87V17.5h-1.87V30zm-3.06-7.298h-.065c-.42-.5-1.224-.95-2.24-.95-2.126 0-4.075 1.87-4.075 4.27 0 2.383 1.95 4.236 4.076 4.236 1.015 0 1.82-.45 2.24-.967h.063v.62c0 1.63-.87 2.5-2.27 2.5-1.145 0-1.854-.82-2.144-1.51l-1.627.68c.467 1.13 1.708 2.517 3.77 2.517 2.19 0 4.044-1.29 4.044-4.43v-7.64h-1.773v.69zm-2.143 5.88c-1.29 0-2.368-1.08-2.368-2.56 0-1.5 1.08-2.595 2.368-2.595 1.273 0 2.27 1.096 2.27 2.594 0 1.49-.997 2.57-2.27 2.57zm24.38-11.083h-4.47V30H99.2v-4.736h2.606c2.068 0 4.1-1.497 4.1-3.883s-2.032-3.88-4.1-3.88zm.05 6.02H99.2v-4.28h2.654c1.395 0 2.187 1.15 2.187 2.14 0 .97-.79 2.14-2.18 2.14zm11.53-1.8c-1.35 0-2.75.59-3.33 1.91l1.658.69c.354-.69 1.013-.92 1.705-.92.965 0 1.946.58 1.962 1.61v.123c-.338-.193-1.062-.48-1.946-.48-1.785 0-3.603.98-3.603 2.813 0 1.674 1.47 2.75 3.11 2.75 1.26 0 1.95-.56 2.38-1.22h.07v.965h1.8v-4.79c0-2.22-1.65-3.46-3.79-3.46zm-.225 6.85c-.61 0-1.463-.31-1.463-1.06 0-.97 1.06-1.34 1.978-1.34.82 0 1.206.17 1.705.42-.145 1.15-1.142 1.97-2.22 1.97zM123.743 22l-2.14 5.42h-.063L119.32 22h-2.01l3.33 7.575-1.9 4.214h1.947l5.13-11.79h-2.074zm-16.807 8h1.866V17.5h-1.866V30z" class="s2"/>
  <linearGradient id="g1" x1="21.8" x2="5.017" y1="173.29" y2="156.508" gradientUnits="userSpaceOnUse" gradientTransform="matrix(1 0 0 -1 0 182)">
    <stop offset="0" stop-color="#00A0FF"/>
    <stop offset=".007" stop-color="#00A1FF"/>
    <stop offset=".26" stop-color="#00BEFF"/>
    <stop offset=".512" stop-color="#00D2FF"/>
    <stop offset=".76" stop-color="#00DFFF"/>
    <stop offset="1" stop-color="#00E3FF"/>
  </linearGradient>
  <path d="M10.435 7.538c-.29.308-.463.786-.463 1.405V31.06c0 .62.173 1.096.463 1.404l.074.072 12.38-12.39v-.29L10.5 7.466l-.072.073z" class="s3"/>
  <linearGradient id="g2" x1="33.834" x2="9.637" y1="161.999" y2="161.999" gradientUnits="userSpaceOnUse" gradientTransform="matrix(1 0 0 -1 0 182)">
    <stop offset="0" stop-color="#FFE000"/>
    <stop offset=".409" stop-color="#FFBD00"/>
    <stop offset=".775" stop-color="#FFA500"/>
    <stop offset="1" stop-color="#FF9C00"/>
  </linearGradient>
  <path d="M27.028 24.28l-4.13-4.133v-.29l4.13-4.13.094.052 4.893 2.78c1.397.79 1.397 2.09 0 2.88l-4.893 2.78-.094.05z" class="s4"/>
  <linearGradient id="g3" x1="24.827" x2="2.069" y1="159.704" y2="136.946" gradientUnits="userSpaceOnUse" gradientTransform="matrix(1 0 0 -1 0 182)">
    <stop offset="0" stop-color="#FF3A44"/>
    <stop offset="1" stop-color="#C31162"/>
  </linearGradient>
  <path d="M27.122 24.225L22.898 20 10.435 32.465c.46.488 1.22.548 2.078.06l14.61-8.3" class="s5"/>
  <linearGradient id="g4" x1="7.297" x2="17.46" y1="181.824" y2="171.661" gradientUnits="userSpaceOnUse" gradientTransform="matrix(1 0 0 -1 0 182)">
    <stop offset="0" stop-color="#32A071"/>
    <stop offset=".069" stop-color="#2DA771"/>
    <stop offset=".476" stop-color="#15CF74"/>
    <stop offset=".801" stop-color="#06E775"/>
    <stop offset="1" stop-color="#00F076"/>
  </linearGradient>
  <path d="M27.122 15.777l-14.61-8.3c-.855-.487-1.616-.427-2.077.06L22.898 20l4.224-4.222z" class="s6"/>
  <path d="M27.03 24.132L12.512 32.38c-.812.46-1.537.43-2.003.01l-.08.074.07.073c.46.42 1.19.45 2-.012l14.61-8.3-.1-.093z" class="s7"/>
  <path d="M10.435 32.318c-.29-.308-.463-.785-.463-1.405v.147c0 .62.173 1.097.463 1.404l.075-.074-.075-.072zM32.015 21.3l-4.985 2.83.092.093 4.893-2.78c.698-.397 1.048-.92 1.048-1.443-.06.473-.415.937-1.048 1.297z" class="s8"/>
  <path d="M12.513 7.623l19.502 11.08c.633.36.99.824 1.048 1.298 0-.52-.35-1.04-1.048-1.44L12.513 7.48c-1.397-.795-2.54-.135-2.54 1.465v.147c0-1.6 1.143-2.26 2.54-1.468z" class="s9"/>
</svg>